<svg xmlns="http://www.w3.org/2000/svg" width="385" height="670" viewBox="0 0 385 670"><defs><style>.cls-1{fill:#4d4d4d;}.cls-2{fill:#2380a3;}.cls-3{fill:#ffdca3;}.cls-4{fill:#d10023;}.cls-5{fill:#ffa216;}.cls-6{fill:#ff68a9;}.cls-7{fill:#cbcbcb;}.cls-8{fill:#e5e5e5;stroke:#b2b2b2;stroke-miterlimit:10;stroke-width:3px;}.cls-9{fill:#fff;}.cls-10{fill:#fdd192;}.cls-11{fill:#f1f1f1;}.cls-12{fill:#7c4a1a;}.cls-13{fill:#cd9965;}</style></defs><g id="Layer_4" data-name="Layer 4"><path class="cls-1" d="M200.54,656.88c-3.94.48-9.77,1.18-16.85,2-3.73.42-22,2.48-32.67,3.4-32.83,2.83-49.36,4.34-54.73-3.17-1.86-2.61-6-10.64,4.28-31.1a1044.57,1044.57,0,0,0-3.08-211.71c-.66-5.74-1-8.6-1.58-12.8C81.17,293.54,46.78,246.43,66,194c2.72-7.42,4.5-9.46,6.46-9.69,15.43-1.8,45.49,107.86,59,219.68,1,8.43,1.62,14.25,1.79,15.92a904.77,904.77,0,0,1-1.34,196.34c20.81-7.48,42.94-3.24,56.24,10.83C198.56,638.11,200.19,651.66,200.54,656.88Z"/><path class="cls-1" d="M128.86,153a1047,1047,0,0,1,77.77,258.68A1044.81,1044.81,0,0,1,219.52,623s-11.06,21.44-2.84,31.26,84.94,3.89,82.73-16c0,0,5.75-21.33-49.17-28.5a904.84,904.84,0,0,0-7.75-196.19c-21.08-139.86-72.28-251.26-76.13-250.13a7.11,7.11,0,0,0-1.61,1.28c.06.09,2-.7,2.09-1.29C167.12,161.64,149.57,157.39,128.86,153Z"/><path class="cls-2" d="M94,277.58s-98.51,87.21-75.32,167l14,1.24S27,380.91,91.9,306.12Z"/><circle class="cls-3" cx="21.59" cy="457.85" r="19.54"/><path class="cls-1" d="M33.5,343.79c1,7.91,1.3,13.2,2,17.54.32,2.11.71,4.31,1.21,6.81h0c2.33,10.4,5.84,26.46,10.58,46.58a108.51,108.51,0,0,0,27.53,30.7C135.55,491.08,224,452,231.47,448.59c12.87-6,32.69-18.08,43.4-40.22,6.27-12.95,7.92-26.24,9.53-39.17a190.81,190.81,0,0,0,1.06-36c-54.37,64.61-96.48,78-127,75.17C84.9,401.65,35.31,348,33.5,339.55a35.3,35.3,0,0,0-1.06-4.23C32.29,335.35,32.88,338.82,33.5,343.79Z"/><path class="cls-3" d="M257.2,389.13a17.21,17.21,0,0,1-7.14.77s-58.87,13.28-117.57,15.15c-12,.38-24,.28-35.5-.5-19.94-1.36-38.34-4.8-52.55-11.42,0,0-25.83-103.34-18.3-147.48a314.58,314.58,0,0,1,18.09-60,257.3,257.3,0,0,1,11.48-24c26.1-47.81,62.55-75.65,97.42-75.17C192,87,220.25,122.64,235,141.23,306.67,231.64,292.08,377.35,257.2,389.13Z"/><path class="cls-2" d="M347.92,213.25l-14-1.3s4.8,56.84-48,125.18c.17-11.22-.07-20.73-.38-28-55.29,65.7-98.1,79.28-129.18,76.44-74.76-6.83-125.18-61.35-127-70a38.59,38.59,0,0,0-1.07-4.3c-.16,0,.44,3.55,1.07,8.61,1,8.05,1.32,13.42,2,17.84.33,2.14.72,4.38,1.23,6.92h0c1.17,7.91,2.58,16.18,4.31,24.76,1.66,8.28,3.47,16.18,5.38,23.68a119.41,119.41,0,0,0,29.07,30.15c59.73,43,138.6,11.48,159.32,3.22,41.38-16.47,49-34.59,50.6-38.75,2-5.21,2.85-11.23,3.45-20.21C310.68,340.74,365.57,275,347.92,213.25Z"/><path class="cls-4" d="M46.21,320.23,28.3,309.16q2.14,17.77,4.3,35.53l106.58,52.75q-1.62-9.15-3.23-18.3L46.21,320.23,28.3,309.16"/><path class="cls-4" d="M285.58,309.16c-3-3.19-23.39,8-94.73,65.67q-1.62,10.77-3.23,21.53,49-29.6,98-59.21c-.06-3.16-.11-8,0-14C285.8,311.55,286.36,310,285.58,309.16Z"/><circle class="cls-5" cx="165.01" cy="430.81" r="47.37"/><path d="M196.23,255.34l-85,4.3S97.19,392.06,158.55,377C158.55,377,238.22,384.52,196.23,255.34Z"/><path class="cls-6" d="M189.76,352.26a31.67,31.67,0,0,0-10.57-12.8,39.55,39.55,0,0,0-11.65-5.7,46.75,46.75,0,0,0-16.28-2.11q7.43,6.17,6.7,7.36c-.36.59-2.2.39-6.7-1.38a36.29,36.29,0,0,0-19.62-6.94c-3.36-.11-14.13-.5-17.22,5.39-1.53,2.91,0,7,3.23,15.07,2.44,6.25,5.82,10.71,11.84,19.38,2.21,3.18,4.09,5.77,5.38,7.53q8.61,117.35,17.23,234.68A43.94,43.94,0,0,1,169.32,616c23.52,9.71,29.45,37.4,30.14,40.91,7,2.22,64.29,20.11,73.21,4.31a10.09,10.09,0,0,0,1.13-5.82c1.79-5.31,1.3-9.06.61-11.4-1.88-6.44-7.68-10.46-40.5-26.92l-4.31-2.15c-.95-.87-2.52-2.34-4.3-4.31-17.6-19.46-18-45.53-18.3-54.9C206,527.14,198.73,453.22,189.76,352.26Z"/><path class="cls-7" d="M163.94,182.13a46.37,46.37,0,0,0-28,0V174.6a46.37,46.37,0,0,1,28,0Z"/><path class="cls-7" d="M252.21,166c-4.11.55-8.43,1.26-12.92,2.15q-5,1-9.69,2.15v7.54a28.54,28.54,0,0,1,7.54-3.23c3.38-.9,5.13-.41,8.61-1.08a27.88,27.88,0,0,0,8.61-3.23C253.65,168.86,252.93,167.42,252.21,166Z"/><path class="cls-8" d="M175.06,157.34h46.11a12.2,12.2,0,0,1,12.2,12.2v14.33A14.41,14.41,0,0,1,219,198.28h-43.9a12.2,12.2,0,0,1-12.2-12.2V169.54A12.2,12.2,0,0,1,175.06,157.34Z"/><path class="cls-7" d="M61.67,146.61c-.15.27-3.39,6.47,0,11.84a11,11,0,0,0,5.38,4.31v7.53a14,14,0,0,1-5.38-3.23c-4.62-4.48-4.37-10.71-4.31-11.84Z"/><circle class="cls-9" cx="200.42" cy="176.93" r="16.33"/><circle cx="200.42" cy="176.93" r="13.36"/><circle class="cls-9" cx="198.26" cy="173.92" r="7.76"/><circle class="cls-9" cx="209.47" cy="172.19" r="1.72"/><circle class="cls-9" cx="207.31" cy="175.21" r="1.29"/><path class="cls-8" d="M79.25,156.26h46.11a12.2,12.2,0,0,1,12.2,12.2V182.8a14.41,14.41,0,0,1-14.41,14.41H79.25A12.2,12.2,0,0,1,67.05,185V168.46A12.2,12.2,0,0,1,79.25,156.26Z"/><circle class="cls-9" cx="104.61" cy="175.86" r="16.33"/><circle cx="104.61" cy="175.86" r="13.36"/><circle class="cls-9" cx="102.45" cy="172.84" r="7.76"/><circle class="cls-9" cx="113.66" cy="171.12" r="1.72"/><circle class="cls-9" cx="111.5" cy="174.13" r="1.29"/><path class="cls-5" d="M116.6,130.26c-3.12,0-9.8.12-16.19,4.19a29.35,29.35,0,0,0-9.49,10.25c-10,16.4-35.79,32.88-41.09,28.82-4.78-3.65,3.12-27,12.73-32,5.25-2.77,7-4.48,10.66-7.65a16.77,16.77,0,0,0,3.15-3.65c3.42-5.16,1.54-7.59,5-15.07s6.21-6.85,10.48-13.74c5.5-8.86,3.17-13.51,7.94-26.71a78.6,78.6,0,0,1,8.9-17.42,87.64,87.64,0,0,1,43.86-10.72c46,1.13,76.55,38.91,81.45,45.16a85.55,85.55,0,0,0,.47,16.42c.68,5.41,1.28,10.17,3.75,15.89,2.35,5.46,5.23,9.07,9.06,13.8,5.48,6.78,7.85,8.11,10.1,10.86,3.71,4.55,6.32,13.67-.12,34a77.92,77.92,0,0,1-21.2-24.19C229.74,147,229.9,140,223.15,134.77c-7.19-5.55-14.23-2.84-31.22-2.16C168.66,133.55,150.05,130,116.6,130.26Z"/><ellipse class="cls-10" cx="149.4" cy="236.5" rx="31.76" ry="20.99"/><path d="M135,583.93H103.47L100.57,628s-22.91,41.06,15.92,36.59q16.79-.83,34.53-2.32c16.83-1.43,33-3.26,48.44-5.38A58.29,58.29,0,0,0,192.92,638c-5.34-9.88-14.83-20.69-31.39-24.38A52.79,52.79,0,0,0,132.72,616Q133.86,599.95,135,583.93Z"/><path d="M220.37,583.93h31.26l-1.39,25.9s45.29,4.68,48.93,23.71c0,0,7,16-25.37,21.83.35-10.62-3.64-16-5.33-17.92-2.51-2.87-5.81-4.86-12-8.56-1.07-.64-3.56-2.12-8.12-4.46-15.24-7.83-17.91-7-22-11.69C224,610,218,601.05,220.12,604h0Z"/><rect class="cls-2" x="78.89" y="2.36" width="163.63" height="133.49" rx="20.93"/><path class="cls-11" d="M242.52,122.93a482.3,482.3,0,0,1-81.81,7.53A481.45,481.45,0,0,1,78.89,124q.14-18.81.25-37.62a288.22,288.22,0,0,0,80.49,11.79,288,288,0,0,0,82.54-11.79Q242.35,104.65,242.52,122.93Z"/><path class="cls-2" d="M75.71,123.4c-28.12-.3-55.85,6.95-55.61,11.33.12,2.3,8,5.13,43.6,7.18a729.55,729.55,0,0,0,96.1,6.73s21.57.07,111.54-5c0,0,84.09-5.05-29.17-20.19a697.32,697.32,0,0,1-77.22,5c-16.38.15-32.79.3-54.92-1.69C90.56,125,88.08,123.53,75.71,123.4Z"/><rect class="cls-12" x="309.75" y="164.13" width="70.32" height="32.09" rx="12.49"/><ellipse class="cls-13" cx="369.79" cy="180.18" rx="13.16" ry="16.05"/><path class="cls-5" d="M117.65,233.81c-2.56-.12-3.24,4.42-7.54,8.61-6.93,6.75-16.89,6.35-17.92,6.29a25,25,0,0,1-13-4.62c-1-1.08-9.11-10.42-6.26-21.25a19.44,19.44,0,0,1,3.79-7.33c1.53-.48,7.54-2.18,12.92,1.07,3.39,2.06,6.29,5.95,5.38,7.54-1.21,2.12-8.48-1-10.77,2.15a3.86,3.86,0,0,0-.62,2.35,11.73,11.73,0,0,0,6,3c4.58.76,10.12-1.42,11.46-5.25a6.47,6.47,0,0,0,.1-3.63c-1.71-7.71-11-14.1-13.72-15.88-1.15-.49-10.46-4.33-19.69.78a22.42,22.42,0,0,0-10,11.86c-.29,3.78-.86,17.07,8.18,29.35,9.29,12.6,22.53,15.74,27.78,16.89,17.47,3.86,31.53-2.84,35.74-5a82.81,82.81,0,0,0,42-2.74A76.09,76.09,0,0,0,207,266.1c5.67-.11,24.61-.76,41.92-14a66.22,66.22,0,0,0,11-10.65,25.08,25.08,0,0,0,7.12-18c-.43-12.53-10.69-19.27-11.61-19.84-8.37-6.35-18.27-5.34-21.53-1.08-3.48,4.55-1.45,15.51,8.61,21.53a8.77,8.77,0,0,0,1.08-5.38c-.52-3.45-3.27-4.43-3.23-7.54a5.73,5.73,0,0,1,2.78-4.67c3.41-1.94,9.06.91,11.21,4.67,3.21,5.59-1.37,13.13-2.71,15.34-5,8.3-15.28,15.2-27.31,16.45-20.4,2.1-33.17-13.15-43.18-6-2,1.44-1.13,1.79-4.49,5.08-2.27,2.22-10.73,10.5-23.19,11.53s-26.54-5.18-31.16-14C121,237.27,119.83,233.91,117.65,233.81Z"/><path d="M153.12,337.61c6,8.37,8.66,18.35,10.42,28.34,2,11.33,3.39,22.8,4.91,34.21,1.58,11.81,3,23.63,4.15,35.49,1.1,11.6,2,23.21,3.27,34.79a267.63,267.63,0,0,0,5.79,34.44c1.38,5.62,3.09,11.15,4.44,16.78a90.49,90.49,0,0,1,2.37,17.41c.24,5.84.22,11.7.78,17.53s1.51,11.58,2.58,17.32c2.17,11.67,4.49,23.31,6.74,35,.84,4.3,1.8,9,5,12.26a15,15,0,0,0,6,3.28,13.07,13.07,0,0,1,6.14,4.13,39.44,39.44,0,0,0,5,5.4,47.29,47.29,0,0,0,6.12,4.19c5,2.94,10.06,5.75,15.09,8.62l7.77,4.43a1.5,1.5,0,0,0,1.52-2.59l-15.56-8.87c-4.6-2.62-9.62-5-13.6-8.57a60.77,60.77,0,0,1-4.72-5.3,14.26,14.26,0,0,0-6-4c-2.23-.82-4.44-1.46-6.06-3.33a15,15,0,0,1-2.82-6c-1.43-5.3-2.21-10.82-3.25-16.21q-1.68-8.75-3.38-17.49c-1.11-5.77-2.24-11.55-3-17.38a168.82,168.82,0,0,1-1.18-17.55,115.21,115.21,0,0,0-1.4-17.2c-1-5.69-2.63-11.25-4.15-16.82a243.48,243.48,0,0,1-6.57-34.06c-1.44-11.56-2.36-23.17-3.4-34.77s-2.37-23.4-3.88-35.07-3.07-23.06-4.78-34.56c-1.47-9.87-3.34-19.87-7.85-28.87a48,48,0,0,0-3.88-6.45c-1.11-1.56-3.72-.06-2.59,1.51Z"/><path d="M361.54,468.91a1.5,1.5,0,0,0,0-3,1.5,1.5,0,0,0,0,3Z"/><circle class="cls-3" cx="345.11" cy="200" r="19.54"/></g></svg>
